<svg width="24" height="24" viewBox="0 0 24 24" fill="none" xmlns="http://www.w3.org/2000/svg">
<path fill-rule="evenodd" clip-rule="evenodd" d="M12.279 1.61199C12.0999 1.54023 11.9001 1.54023 11.721 1.61199L2.769 5.19249L6.375 6.63399L15.606 2.94249L12.279 1.61199ZM17.625 3.75099L8.394 7.44249L12 8.88399L21.231 5.19249L17.625 3.75099ZM22.5 6.30099L12.75 10.201V22.084L22.5 18.184V6.30099ZM11.25 22.0855V10.1995L1.5 6.30099V18.1855L11.25 22.0855ZM11.1645 0.218493C11.7008 0.0039919 12.2992 0.0039919 12.8355 0.218493L23.529 4.49649C23.668 4.55221 23.7872 4.64828 23.8711 4.77233C23.9551 4.89637 24 5.04271 24 5.19249V18.1855C23.9998 18.4852 23.9098 18.778 23.7417 19.0261C23.5735 19.2743 23.3348 19.4663 23.0565 19.5775L12.279 23.8885C12.0999 23.9603 11.9001 23.9603 11.721 23.8885L0.945 19.5775C0.666377 19.4665 0.427414 19.2746 0.258963 19.0265C0.0905126 18.7783 0.000309494 18.4854 0 18.1855L0 5.19249C3.48599e-05 5.04271 0.0449156 4.89637 0.128861 4.77233C0.212805 4.64828 0.331969 4.55221 0.471 4.49649L11.1645 0.218493Z" fill="#A4A4A4"/>
</svg>
