<svg width="26" height="22" viewBox="0 0 26 22" fill="none" xmlns="http://www.w3.org/2000/svg">
<path d="M4.762 15.3948C3.773 15.3948 2.9695 16.877 2.9695 18.6983C2.9695 20.5206 3.7735 21.9991 4.762 21.9991C5.753 21.9991 6.557 20.5206 6.557 18.6974C6.557 16.877 5.7535 15.3948 4.762 15.3948ZM4.762 20.4005C4.268 20.4005 3.866 19.6608 3.866 18.7478C3.866 17.8385 4.268 17.097 4.762 17.097C5.2585 17.097 5.6605 17.8385 5.6605 18.7478C5.661 19.6608 5.259 20.4005 4.762 20.4005ZM20.5335 15.3948C19.543 15.3948 18.74 16.877 18.74 18.6983C18.74 20.5206 19.5425 22 20.5335 22C21.5235 22 22.3285 20.5215 22.3285 18.6983C22.3285 16.877 21.524 15.3948 20.5335 15.3948ZM20.5335 20.4005C20.039 20.4005 19.6365 19.6608 19.6365 18.7478C19.637 17.8385 20.039 17.097 20.5335 17.097C21.0295 17.097 21.432 17.8385 21.432 18.7478C21.432 19.6608 21.03 20.4005 20.5335 20.4005ZM24.5035 0H8.7305C8.457 0 8.234 0.408816 8.234 0.913878V9.20203H7.2405V4.11383C7.2405 3.60785 7.018 3.19995 6.7435 3.19995H3.3595C2.7695 3.19995 2.2425 3.99925 2.148 5.1432V5.08362L1.62 10.5715L1.621 10.5907C1.2625 10.7026 1 11.2736 1 11.9437L1.0165 12.237L1 12.2287L1.745 18.4022H2.521V18.3463C2.521 16.1336 3.5085 14.3416 4.726 14.3416C5.9425 14.3416 6.9305 16.1336 6.9305 18.3463V18.4022H18.2935V18.3463C18.2935 16.1336 19.2815 14.3416 20.497 14.3416C21.7145 14.3416 22.7025 16.1336 22.7025 18.3463L22.7005 18.4022H25V0.913878C25 0.409733 24.778 0 24.5035 0ZM5.5015 4.68489V9.20203H2.5215L2.894 5.36961C2.925 4.9113 3.1425 4.57306 3.3595 4.57306H5.5015V4.68489Z" fill="black"/>
</svg>
